<svg width="24" height="24" viewBox="0 0 24 24" fill="none" xmlns="http://www.w3.org/2000/svg">
<path d="M23.9277 11.6402L20.6886 3.81876C20.5938 3.58911 20.4109 3.40486 20.1799 3.31006L12.3585 0.0709451C12.1289 -0.0238518 11.8699 -0.0238518 11.6389 0.0709451L3.81879 3.31006C3.58914 3.40486 3.40489 3.58778 3.31009 3.81876L0.0709756 11.6402C-0.0238213 11.8698 -0.0238213 12.1288 0.0709756 12.3598L3.31009 20.1812C3.40489 20.4109 3.58781 20.5951 3.81879 20.6899L11.6402 23.9291C11.8699 24.0238 12.1289 24.0238 12.3599 23.9291L20.1813 20.6899C20.4109 20.5951 20.5952 20.4122 20.69 20.1812L23.9291 12.3598C24.0239 12.1288 24.0239 11.8698 23.9277 11.6402Z" fill="#6100FB"/>
<path d="M17.1491 17.7218L12.2664 19.7446L6.78952 17.4762L4.52241 11.9993L6.79086 6.52246L12.2664 4.25401L17.1491 6.27679L18.7206 5.14323L12.5508 2.58772C12.46 2.55034 12.3638 2.53165 12.2664 2.53165C12.1689 2.53165 12.0741 2.55034 11.982 2.58772L5.81218 5.14457C5.6306 5.21934 5.4864 5.36354 5.41029 5.54645L2.85478 11.7149C2.78001 11.8965 2.78001 12.1008 2.85478 12.2824L5.41029 18.4522C5.48506 18.6338 5.62926 18.778 5.81218 18.8541L11.982 21.4096C12.0728 21.447 12.1689 21.4657 12.2664 21.4657C12.3638 21.4657 12.4586 21.447 12.5508 21.4096L18.7206 18.8541L17.1491 17.7218Z" fill="#2D2D2D"/>
<path d="M19.3976 7.81089V8.71213C20.4056 8.90573 20.9958 9.64541 20.9958 10.815V10.9111H19.5792V10.7389C19.5792 10.1488 19.3001 9.83767 18.8275 9.83767C18.3441 9.83767 18.1091 10.1274 18.1091 10.5453C18.1091 11.05 18.6672 11.2743 19.2894 11.5106L19.5044 11.5854C20.2881 11.8751 21.2 12.293 21.2 13.452C21.2 14.4173 20.6206 15.2758 19.3976 15.448V16.2852H18.3788V15.4374C17.3054 15.2758 16.6618 14.5789 16.6618 13.4627V13.2156H18.0677V13.3879C18.0677 13.978 18.3361 14.2998 18.9263 14.2998C19.4844 14.2998 19.7314 13.9567 19.7314 13.5161C19.7314 13.0541 19.3348 12.9259 18.7981 12.7323L18.3588 12.5708C17.543 12.281 16.6525 11.9165 16.6525 10.6174C16.6525 9.50121 17.3815 8.8363 18.3802 8.68676V7.80688H19.3976V7.81089Z" fill="white"/>
<path fill-rule="evenodd" clip-rule="evenodd" d="M11.6655 14.4307H15.3306V16.1343H9.20349V14.5856L11.6148 11.9166L9.21417 9.41712V7.86432H15.3306V9.56799H11.743L13.9674 11.8965L11.6655 14.4307Z" fill="white"/>
</svg>
